<svg version="1.1" viewBox="159 13 381 535" xmlns="http://www.w3.org/2000/svg" xmlns:xlink="http://www.w3.org/1999/xlink">
  <path d="m517.44 78.961c-14.559-1.6797-27.441 8.3984-29.121 22.961l-14 117.6c-0.55859 4.4805-3.9219 7.2812-8.3984 7.2812h-0.55859c-4.4805 0-7.8398-3.9219-7.8398-8.3984l6.7188-152.88c0.55859-14.559-10.641-26.879-25.199-27.441-14.559-0.55859-26.879 10.641-27.441 25.199l-6.7188 152.88c0 4.4805-3.9219 7.8398-8.3984 7.8398-3.9219 0-7.2812-3.3594-7.8398-7.8398l-11.199-177.52c-1.1211-14.559-13.441-25.199-28-24.641-14.559 1.1211-25.199 13.441-24.641 28l10.641 170.24c0.55859 5.0391-3.3594 8.9609-8.3984 8.3984h-2.8008c-3.9219 0-6.7188-2.8008-7.8398-6.7188l-24.078-139.44c-2.2383-14.559-16.238-23.52-30.238-21.281-14.559 2.2383-24.078 16.238-21.281 30.238 0 0 20.719 113.68 24.078 137.76 3.3594 24.078 4.4805 38.078 5.6016 59.922 0.55859 12.32-9.5195 20.16-21.84 8.3984 0 0-22.398-27.441-35.281-40.879-12.879-13.441-26.879-17.922-40.32-9.5195-14.559 8.9609-17.922 28-8.3984 41.441 0 0 56.559 92.961 91.84 131.6 11.199 12.32 24.641 24.641 39.762 30.801l7.2695 83.434c1.1211 11.199 10.078 19.602 21.281 19.602h115.36c11.199 0 20.719-8.3984 21.281-19.602l7.2812-85.68c33.602-15.121 35.84-62.16 42.559-110.88 8.3984-59.359 29.117-221.76 29.117-221.76 1.6797-14.559-8.957-27.438-22.957-29.117z"/>
</svg>
